<?xml version="1.0" standalone="no"?>
<!DOCTYPE svg PUBLIC "-//W3C//DTD SVG 20010904//EN"
 "http://www.w3.org/TR/2001/REC-SVG-20010904/DTD/svg10.dtd">
<svg version="1.0" xmlns="http://www.w3.org/2000/svg"
 width="512.000000pt" height="512.000000pt" viewBox="0 0 512.000000 512.000000"
 preserveAspectRatio="xMidYMid meet">
<metadata>
Created by potrace 1.11, written by Peter Selinger 2001-2013
</metadata>
<g transform="translate(0.000000,512.000000) scale(0.100000,-0.100000)"
fill="#000000" stroke="none">
<path d="M2315 5109 c-637 -65 -1215 -355 -1647 -826 -621 -679 -828 -1645
-538 -2523 127 -387 332 -720 621 -1009 405 -405 902 -649 1494 -733 118 -17
512 -17 630 0 303 43 553 119 810 246 279 138 479 282 692 497 211 213 343
400 479 674 127 257 203 507 246 810 17 118 17 512 0 630 -84 592 -328 1089
-733 1494 -396 395 -881 638 -1449 726 -125 19 -477 28 -605 14z m440 -1155
c289 -78 500 -290 581 -584 27 -98 25 -291 -4 -393 -51 -179 -173 -353 -320
-456 l-34 -24 98 -38 c503 -198 839 -659 880 -1206 l7 -93 -1402 0 -1401 0 0
43 c0 138 47 356 107 497 106 247 266 447 479 598 92 66 249 148 343 180 l55
18 -46 32 c-70 48 -165 149 -213 227 -107 172 -147 377 -111 567 31 163 98
290 215 411 117 121 256 198 421 233 81 17 262 11 345 -12z"/>
</g>
</svg>
